<?xml version="1.0" encoding="UTF-8"?>
<svg id="Layer_1" data-name="Layer 1" xmlns="http://www.w3.org/2000/svg" viewBox="0 0 100 100">
  <defs>
    <style>
      .cls-1 {
        fill: #19abdd;
      }

      .cls-1, .cls-2 {
        opacity: .7;
      }

      .cls-2 {
        fill: #fff;
      }
    </style>
  </defs>
  <g>
    <rect class="cls-2" x="2.7" y="42.98" width="28.55" height="26.12"/>
    <rect class="cls-2" x="55.73" y="13.77" width="41.57" height="26.46"/>
    <rect class="cls-2" x="31.46" y="19" width="11.9" height="4.15"/>
    <rect class="cls-2" x="48.06" y="71.36" width="49.23" height="20.23"/>
  </g>
  <rect class="cls-1" x="11.04" y="32.69" width="19.83" height=".77" transform="translate(-12.14 53.99) rotate(-89.93)"/>
  <polygon class="cls-1" points="48.06 80.25 20.53 80.24 20.54 69.11 21.31 69.11 21.3 79.48 48.06 79.49 48.06 80.25"/>
  <rect class="cls-1" x="85.03" y="40.23" width=".77" height="31.13"/>
  <polygon class="cls-1" points="21.35 19.01 20.58 19 20.59 8.03 85.84 8.06 85.83 13.91 85.07 13.91 85.07 8.82 21.36 8.79 21.35 19.01"/>
  <rect class="cls-1" x="20.91" y="11.18" width="64.54" height=".77"/>
  <rect class="cls-1" x="20.91" y="8.06" width="64.54" height=".77"/>
  <path class="cls-1" d="M31.63,69.49H2.32v-26.89h29.31v26.89ZM3.09,68.72h27.78v-25.36H3.09v25.36Z"/>
  <polygon class="cls-1" points="58.47 46.7 33.89 46.7 33.89 44.82 34.65 44.82 34.65 45.94 57.7 45.94 57.7 44.82 58.47 44.82 58.47 46.7"/>
  <polygon class="cls-1" points="58.47 63.41 33.89 63.41 33.89 61.53 34.65 61.53 34.65 62.64 57.7 62.64 57.7 61.53 58.47 61.53 58.47 63.41"/>
  <polygon class="cls-1" points="58.47 69.44 33.89 69.44 33.89 67.56 34.65 67.56 34.65 68.67 57.7 68.67 57.7 67.56 58.47 67.56 58.47 69.44"/>
  <path class="cls-1" d="M97.68,40.61h-42.34V13.39h42.34v27.23ZM56.11,39.85h40.8V14.15h-40.8v25.69Z"/>
  <path class="cls-1" d="M97.68,40.61h-42.34v-7.55h42.34v7.55ZM56.11,39.85h40.8v-6.02h-40.8v6.02Z"/>
  <path class="cls-1" d="M31.84,23.54H2.48v-4.91h29.35v4.91ZM3.25,22.77h27.82v-3.38H3.25v3.38Z"/>
  <path class="cls-1" d="M43.74,23.54h-12.66v-4.91h12.66v4.91ZM31.84,22.77h11.13v-3.38h-11.13v3.38Z"/>
  <path class="cls-1" d="M97.68,91.97h-50v-20.99h50v20.99ZM48.45,91.21h48.47v-19.46h-48.47v19.46Z"/>
  <path class="cls-1" d="M93.44,31.21h-33.85v-2.47h33.85v2.47h0ZM60.35,30.45h32.32v-.94h-32.32v.94Z"/>
  <rect class="cls-1" x="78.55" y="29.12" width="2.71" height="1.7"/>
  <path class="cls-1" d="M81.64,31.21h-3.47v-2.47h3.47v2.47ZM78.94,30.45h1.94v-.94h-1.94v.94Z"/>
  <path class="cls-1" d="M73.97,39.4c-1.29,0-2.34-1.05-2.34-2.34s1.05-2.34,2.34-2.34,2.34,1.05,2.34,2.34-1.05,2.34-2.34,2.34ZM73.97,35.49c-.87,0-1.57.7-1.57,1.57s.7,1.57,1.57,1.57,1.57-.7,1.57-1.57c0-.87-.7-1.57-1.57-1.57Z"/>
  <rect class="cls-1" x="88.07" y="35.87" width=".77" height="2.43"/>
  <rect class="cls-1" x="85.36" y="37.15" width=".77" height="1.15"/>
  <polygon class="cls-1" points="92.31 38.68 90.78 38.68 90.78 34.68 91.55 34.68 91.55 37.92 92.31 37.92 92.31 38.68"/>
  <path class="cls-1" d="M67.15,59.67l-2.04-7.58,7.58,2.04-5.54,5.54ZM66.19,53.18l1.35,5.02,3.67-3.67-5.02-1.35Z"/>
  <polygon class="cls-1" points="72.54 60.94 68.84 57.24 69.38 56.7 72.54 59.86 72.88 59.53 69.71 56.37 70.26 55.82 73.96 59.53 72.54 60.94"/>
  <path class="cls-1" d="M25.53,55.35c-1.79,0-3.24-1.46-3.24-3.25s1.46-3.25,3.24-3.25,3.24,1.46,3.24,3.25-1.46,3.25-3.24,3.25ZM25.53,49.63c-1.37,0-2.48,1.11-2.48,2.48s1.11,2.48,2.48,2.48,2.48-1.11,2.48-2.48-1.11-2.48-2.48-2.48Z"/>
  <polygon class="cls-1" points="31.22 61.96 22.92 61.34 17.18 54.59 15.24 57.28 10.24 49.52 3.01 61.17 2.35 60.77 10.22 48.09 15.28 55.92 17.13 53.35 23.3 60.6 31.28 61.2 31.22 61.96"/>
  <path class="cls-1" d="M69.97,89.63c-.57,0-1.04-.47-1.04-1.04s.47-1.04,1.04-1.04,1.04.47,1.04,1.04-.47,1.04-1.04,1.04ZM69.97,88.31c-.15,0-.28.12-.28.28s.12.28.28.28.28-.12.28-.28-.12-.28-.28-.28Z"/>
  <path class="cls-1" d="M72.68,89.63c-.57,0-1.04-.47-1.04-1.04s.47-1.04,1.04-1.04,1.04.47,1.04,1.04-.47,1.04-1.04,1.04ZM72.68,88.31c-.15,0-.28.12-.28.28s.12.28.28.28.28-.12.28-.28-.12-.28-.28-.28Z"/>
  <path class="cls-1" d="M75.38,89.63c-.57,0-1.04-.47-1.04-1.04s.47-1.04,1.04-1.04,1.04.47,1.04,1.04-.47,1.04-1.04,1.04ZM75.38,88.31c-.15,0-.28.12-.28.28s.12.28.28.28.28-.12.28-.28-.12-.28-.28-.28Z"/>
</svg>