<?xml version="1.0" encoding="UTF-8"?>
<svg xmlns="http://www.w3.org/2000/svg" xmlns:xlink="http://www.w3.org/1999/xlink" viewBox="0 0 200 200">
  <defs>
    <style>
      .cls-1 {
        fill: #ffbaba;
      }

      .cls-2 {
        fill: #e8f2ff;
      }

      .cls-2, .cls-3 {
        mix-blend-mode: multiply;
      }

      .cls-4 {
        fill: #f9d5d1;
      }

      .cls-5 {
        fill: #191b36;
      }

      .cls-6 {
        fill: #ffe5e5;
      }

      .cls-7 {
        fill: url(#linear-gradient);
      }

      .cls-8 {
        fill: #5a90e0;
      }

      .cls-9 {
        isolation: isolate;
      }

      .cls-10 {
        fill: #f9b8b8;
      }

      .cls-11 {
        fill: #3f4883;
      }

      .cls-12 {
        fill: #fff;
      }

      .cls-13 {
        fill: #ff8787;
      }

      .cls-3 {
        fill: #d3e0f0;
      }

      .cls-14 {
        fill: #1f3d7a;
      }

      .cls-15 {
        fill: #f9ccc7;
      }

      .cls-16 {
        fill: #b34d4d;
      }
    </style>
    <linearGradient id="linear-gradient" x1="98.83" y1="-34.98" x2="98.83" y2="260.61" gradientUnits="userSpaceOnUse">
      <stop offset="0" stop-color="#f0f7ff"/>
      <stop offset="1" stop-color="#c4e6ff"/>
    </linearGradient>
  </defs>
  <g class="cls-9">
    <g id="Layer_1" data-name="Layer 1">
      <rect class="cls-7" x="-7.56" y="-9.49" width="212.77" height="209.49"/>
      <g>
        <path class="cls-3" d="M162.97,136.97c-2.64-6.58-6.15-12.97-10.39-19-2.45-3.48-5.14-6.84-8.06-10.04-.17-.19-.34-.37-.51-.56l-.06.09s-.1-.07-.15-.09c-.25-.13-.49-.26-.75-.38h0c-.08-.04-.15-.07-.22-.11-.9-.44-1.88-.87-2.9-1.29-.54-.22-1.09-.44-1.65-.65h0c-.47-.18-.95-.36-1.44-.54-.38-.13-.76-.27-1.14-.4h0c-5.22-1.82-10.91-3.36-14.77-4.32h0c-.32-.08-.63-.16-.92-.22-.2-.31-.41-.62-.62-.91,0,0,0,0,0,0,0,0,0,0,0,0-1.05-1.48-2.24-2.79-3.58-3.89-.29-.24-.59-.47-.9-.69-.03-.02-.07-.05-.11-.08-.15-.1-.29-.2-.44-.3h0c-1.14-.75-2.36-1.36-3.69-1.81h0c-.48-.16-.97-.3-1.49-.43h0c-.06-.01-.12-.03-.18-.04-.41-.09-.84-.17-1.28-.24-2.55-.38-4.98.03-7.15.95-1.08-.41-2.23-.7-3.45-.89-1.82-.27-3.59-.14-5.24.29,0,0,0,0,0,0-.33.09-.65.19-.97.29-1.29.44-2.49,1.06-3.6,1.8-.32.21-.63.43-.93.66t0,0c-.14.1-.28.21-.41.32-.58.47-1.12.98-1.62,1.51-.74.77-1.42,1.57-2.05,2.38t0,0c-.22.28-.43.56-.64.84h0c-.19.03-.38.06-.58.09h0c-4.03.66-10.18,1.78-15.96,3.25h0c-1.7.43-3.36.9-4.92,1.38h0c-2.22.69-4.25,1.44-5.9,2.24-.07.03-.14.07-.2.1-.04.02-.08.04-.12.06-.46.23-.88.46-1.26.69-.03.02-.07.04-.1.06,0,0,0,0,0,0-.17.1-.34.21-.49.32h-.01s-.02.02-.03.03c0,0,0,0,0,0-.48.33-.9.67-1.22,1.02-.17.17-.31.35-.43.53-.1.15-.2.3-.29.46-.04.07-.08.13-.12.2-.34.38-.66.76-.98,1.14-8.61,10.24-13.84,23.71-16.28,37.16-.31,1.71-.58,3.42-.8,5.12-1.28,9.8-1.11,19.39.29,27.48.05.31.11.62.17.92.06.31.11.62.18.92.04.22.09.45.14.67.78,3.7,1.84,7.03,3.15,9.86.81,1.74,1.68,3.17,2.54,4.24,2.3,2.73,6.02,4.11,10.64,4.53.05,0,.11.01.16.01.31.03.63.05.95.07.16.01.31.02.47.03h0c0,.08,0,.16,0,.24,0,.18-.02.36-.02.54,0,.13-.01.27-.01.4,0,.11-.01.22-.02.34,0,.01,0,.02,0,.03,0,.11-.01.23-.02.34-.01.22-.03.45-.06.68-.02.42-.04.84-.07,1.26h0c-.18,3.19-.46,6.43-.81,9.73-.02.14-.03.28-.04.42-.16,1.49-.34,2.99-.53,4.5-.16,1.31-.34,2.64-.52,3.96-.05.37-.1.75-.16,1.12-.07.49-.14.98-.21,1.48-.11.74-.21,1.47-.33,2.21-.52,3.46-1.09,6.95-1.69,10.46h104.67c-.25-1.85-.5-3.72-.74-5.61-.14-1.08-.27-2.16-.4-3.25-.35-2.92-.69-5.87-1-8.84-.18-1.66-.34-3.33-.5-5.01-.14-1.5-.28-3-.4-4.51-.19-2.27-.37-4.54-.53-6.82-.08-1.07-.16-2.14-.22-3.21-.02-.36-.04-.72-.05-1.08-.01-.22-.02-.44-.04-.66-.03-.64-.07-1.27-.1-1.91,5.24.46,9.45-.08,11.83-2.13,2.92-2.5,5.15-6.38,6.77-11.23,5.34-15.65,3.95-32.54-2.38-48.31ZM85.66,98.62s-.05.01-.15.04h0s-.01-.01-.01-.01h0s-.09,0-.18.02l-.18.02c.24-.28.48-.55.73-.82.67-.72,1.43-1.4,2.26-2h0s0,0,0,0c.85-.61,1.78-1.14,2.77-1.54,0,0,0,0,.01,0t0,0c.08-.03.16-.07.25-.1,1.75-.66,3.67-.93,5.68-.6.2.03.41.07.61.11-.93.66-1.79,1.41-2.56,2.22-.44.46-.86.93-1.27,1.41-.35.42-.69.84-1.01,1.26h-6.98ZM96.27,98.56s-.05.01-.15.04h0s0-.01,0-.01h0s-.09,0-.18.02h-.11s-.07.01-.07.01c.23-.27.48-.55.73-.81,1.12-1.21,2.49-2.3,4.03-3.09,1.94.88,3.61,2.19,5.05,3.84h-9.31ZM109.83,94.15c.21.07.42.15.62.22,0,0,.01,0,.02.01.03.01.05.02.08.03h0s.05.02.07.03c.7.29,1.37.63,2.01,1.03,1.34.82,2.53,1.87,3.61,3.1h-7.5c-.26-.36-.53-.71-.8-1.05-1.12-1.39-2.37-2.6-3.77-3.59-.15-.11-.31-.21-.46-.31,1.21-.23,2.47-.27,3.77-.06.82.13,1.6.33,2.35.59h0Z"/>
        <path class="cls-8" d="M90.81,92.98s-19.88,5.79-31.95,12.82c-12.06,7.03,7.07,92.53,7.07,92.53h67.98s10.83-90.26.2-96.04c-8.95-4.86-23.33-9.31-23.33-9.31h-19.97Z"/>
        <path class="cls-12" d="M146.07,239.53H50.24c2.36-13.34,4.44-26.44,5.2-38.6.05-.74.09-1.47.12-2.2.06-.48.08-.97.1-1.45.02-.35.03-.7.04-1.05,0-.02,0-.03,0-.05,0-.12.01-.23.02-.35.04-1.3.08-2.59.12-3.87,0-.11,0-.23.01-.35.02-.52.03-1.04.05-1.56.03-.86.05-1.71.08-2.56.07-2.27.13-4.49.18-6.67.06-2.59.06-5.16,0-7.7,0-.32-.01-.65-.02-.97-.01-.48-.03-.97-.04-1.45-.02-.48-.03-.96-.06-1.44-.19-4.48-.52-8.86-.91-13.11-.03-.3-.06-.61-.09-.91-.07-.72-.14-1.44-.21-2.16-.05-.47-.1-.94-.15-1.41-.08-.79-.17-1.57-.25-2.35-.07-.62-.13-1.24-.2-1.85-.27-2.45-.55-4.85-.81-7.18-.06-.49-.11-.98-.17-1.47-.03-.27-.06-.54-.09-.81-.06-.54-.12-1.08-.18-1.61-.06-.53-.11-1.06-.17-1.59-.1-1-.2-1.98-.3-2.95,0-.05-.01-.1-.01-.16-.04-.45-.08-.9-.12-1.34-.02-.16-.03-.32-.04-.49-.07-.87-.14-1.73-.2-2.57-.02-.31-.04-.62-.07-.93-.03-.43-.05-.86-.08-1.29-.01-.23-.03-.47-.04-.7-.01-.23-.02-.46-.03-.69-.01-.23-.02-.46-.03-.69-.01-.23-.02-.45-.02-.68-.01-.48-.02-.95-.03-1.41,0-.17,0-.34,0-.51-.01-1.24.01-2.44.07-3.6.01-.25.03-.5.04-.75.02-.4.06-.8.09-1.19.01-.17.03-.34.04-.51.06-.54.12-1.07.19-1.59.06-.42.12-.83.19-1.24.02-.12.04-.25.07-.37.09-.48.19-.95.3-1.4.09-.38.19-.74.29-1.11.21-.79.47-1.55.78-2.27.34-.83.74-1.6,1.19-2.33.13-.22.27-.45.42-.66.36-.53.92-1.05,1.64-1.54h0s.03-.02.04-.03c5.83-3.99,22.04-6.99,29.55-8.2h0c.18-.03.35-.06.51-.08.63-.1,1.19-.19,1.67-.26.6-.09,1.06-.16,1.36-.2.03,0,.06-.01.08-.01h.12c.08-.02.12-.03.15-.03h0s0,.02,0,.02l.04.17h0v.02l.03.16.05.25.15.71.9,4.3.12.59,8.17,39.07h0s.46-1.94.46-1.94l.07-.28,8.08-33.76.67-2.8.22-.95.99-4.12.31-1.29v-.05s.02-.05.02-.05h.06s.02,0,.03,0c0,0,.01,0,.01,0,.26.05.71.15,1.32.29.58.13,1.31.3,2.15.51.12.03.24.06.36.09,5.98,1.46,17.1,4.49,23.47,7.84.05.02.1.06.15.09.53.39.97,1.37,1.26,2.87.06.26.11.54.16.84.03.16.06.31.08.48.03.17.05.34.08.51.02.17.05.35.07.53.02.17.04.33.06.5.02.21.04.42.07.64,0,.06.01.11.02.18.05.49.09,1,.13,1.53.01.16.02.32.03.49.06.81.1,1.66.13,2.56.01.26.02.51.03.77.01.26.02.53.03.8.01.34.02.68.03,1.02,0,.21.01.42.01.63,0,.11,0,.22,0,.33.01.44.02.88.02,1.33.15,10.37-.24,24.93-.23,41.36h0c0,2.86.02,5.77.05,8.73.02,1.64.04,3.29.07,4.96.01.83.03,1.67.05,2.51.01.42.02.84.03,1.26.01.42.02.84.03,1.26.02.84.04,1.69.07,2.53.03.93.06,1.87.09,2.8.03.77.06,1.53.09,2.31.03.85.07,1.71.11,2.57.03.81.07,1.62.11,2.43.04.81.08,1.63.12,2.44.05.86.09,1.71.15,2.57.04,1.05.11,2.09.18,3.14.03.38.06.77.09,1.15.94,13.56,2.54,27.14,4.36,39.62Z"/>
        <path class="cls-3" d="M122.32,184.13c-14.4,3.37-49,17.72-66.75,14.6.11-.97.11-1.94.16-2.91.16-5.21.32-10.21.43-15.01.7-30.02-7.36-57.18-3.03-72.19,2.27-1.79,4.87-3.11,7.74-3.88l14.18,22.36c3.68,5.77-2.06,31.04-2.76,40.13,13.81-.92,33.4-5.36,46.23-4.29l2.82,15.77.11.46.87,4.95Z"/>
        <path class="cls-3" d="M127.68,104.67s-15.35-11.34-15.38-11.37l-1.52-.32-9.71,44.35-.94.97-.88-.97-8.59-44.31-1.61.15-15.14,11.64,14.69,13.66-6.44,9.44c1.19.89,16.84,12.64,17.94,13.47,1.17-.84,18.07-12.58,19.34-13.47l-6.47-9.44,14.7-13.78Z"/>
        <polygon class="cls-12" points="83.33 125.69 89.37 116.84 76.01 104.75 90.63 93.01 90.66 93.01 100.13 138.29 83.33 125.69"/>
        <polygon class="cls-12" points="112.21 116.84 118.25 125.69 100.13 138.29 110.78 92.98 125.57 104.75 112.21 116.84"/>
        <path class="cls-12" d="M118.64,181.17c-17.32,4.03-63.72,23.94-75.15,10.36-.87-1.07-1.73-2.5-2.54-4.24-8.99-19.45-6.26-62.8,16.24-85.51l20.85,15.39c4.29,5.81-6.75,38.28-9.43,47.1,13.81-.92,33.4-5.36,46.24-4.29l2.82,15.77.97,5.41Z"/>
        <path class="cls-2" d="M118.64,181.17c-17.32,4.03-63.72,23.94-75.15,10.36-.87-1.07-1.73-2.5-2.54-4.24,17,14.19,76.8-11.06,76.8-11.06l.89,4.93Z"/>
        <path class="cls-4" d="M87.45,156.2s-7.64-3.47-16.36.17l-2.45,7.88c6.01-1.23,6.19,3.19,13.41,4.6l5.4-12.66Z"/>
        <path class="cls-3" d="M85.67,176.73l1.08-2.4-.54-.2-4.71-2.14c.05,0,6.82-15.21,6.82-15.21l5.58,1.48.6-1.33c12.72,1.74,24.08,4.53,37.23,8.36,1.57-8.99-9.41-20.96-7.19-37.46l14.08-23.48c.38.1.76.26,1.14.41,2.44,11.03-.7,50.39,1.68,90.87-16.57-1.43-43.64-13.02-55.76-18.89Z"/>
        <path class="cls-8" d="M96.22,156.31l-1.46,8.37-2.65,5.05-1.95,3.62-3.47-1.58-.54-.2-4.71-2.14c.05,0,6.82-15.21,6.82-15.21l5.58,1.48,2.38.61Z"/>
        <path class="cls-12" d="M159.89,179.69c-1.62,4.85-3.84,8.73-6.77,11.23-9.91,8.53-51.6-9.04-67.51-16.75l1.08-2.4,1.62-3.73,5.52-12.35.59-1.33c12.72,1.74,25.66,4.34,38.82,8.17,1.57-8.99-13.97-34.32-9.04-39.17l14.29-21.49c20.37,22.07,30.33,51.62,21.39,77.81Z"/>
        <path class="cls-2" d="M159.89,179.69c-1.62,4.85-3.84,8.73-6.77,11.23-9.91,8.53-51.6-9.04-67.51-16.75l1.08-2.4,1.09-2.51s39.2,20.03,56.13,18.9c10.59-.71,15.97-8.47,15.97-8.47Z"/>
        <path class="cls-4" d="M117,158.43s14.86-9.77,20.94-2.78c3.01,3.46,5.53,8.59,3.18,11.81-1.88,2.58-4.66-3.67-8.07-4.9l-16.06-4.13Z"/>
        <path class="cls-15" d="M92.37,80.86c-.05,3.49-.21,10.29-2.01,12,2.62,14.47,16.16,16.03,20.61.24-2.94-2.97-2.15-8.95-2.23-12.25h-16.38Z"/>
        <path class="cls-14" d="M121.08,69.55c-1.08,1.42-8.95,2.4-8.98,2.57l-27.37,4.29c-26.61-13.66-18.23-50.39,1.37-51.27,3.56-6.3,28.24-7.54,37.53,7.08,7.27,11.45,2.56,32.31-2.54,37.33Z"/>
        <path class="cls-14" d="M124.83,57.12s2.23-5.52.39-9.22c0,0,1.31,2.62,1.38,5.29,1.08-2.76,2.02-7.58.1-12.36,0,0,.58.33.93,1.46.55-2.01-2.28-13.97-13.4-14.42-12.82-.52,5.73,17.42,5.66,21-.07,3.59-1.5,13.45-1.5,13.45,0,0,5.13-2.11,6.44-5.19Z"/>
        <path class="cls-10" d="M81.89,72.3c-.72,0-1.44-.06-2.1-.18-.48,0-.96-.06-1.38-.18-10.6-1.86-11.26-10.66-9.22-12.81,2.7-2.87,7.72-1.02,7.72-1.02l4.97,14.19Z"/>
        <path class="cls-4" d="M126.44,54.16c0,16.08-11.69,31.35-25.47,31.35-16.97,0-26.99-15.26-26.99-31.35s11.74-29.12,26.23-29.12,26.23,13.04,26.23,29.12Z"/>
        <path class="cls-11" d="M131.22,53.13v.07s0-.07-.03-.1l.03.03Z"/>
        <path class="cls-6" d="M93.27,60.14c-.04,1.69-1.22,3.04-2.63,3.01-1.41-.03-2.52-1.43-2.48-3.13.04-1.69,1.22-3.04,2.63-3.01,1.41.03,2.52,1.43,2.48,3.13Z"/>
        <path class="cls-14" d="M92.73,60.13c-.03,1.33-.96,2.39-2.07,2.36-1.11-.03-1.98-1.13-1.95-2.46.03-1.33.96-2.39,2.07-2.36,1.11.03,1.98,1.13,1.95,2.46Z"/>
        <path class="cls-5" d="M91.98,60.11c-.02.83-.6,1.5-1.3,1.48-.7-.02-1.24-.71-1.22-1.54.02-.83.6-1.5,1.3-1.48.7.02,1.24.71,1.22,1.54Z"/>
        <path class="cls-12" d="M89.37,59.2c0-.31.26-.55.57-.55.31,0,.55.26.55.57,0,.31-.26.55-.57.55-.31,0-.55-.26-.55-.57Z"/>
        <path class="cls-12" d="M90.79,58.57c0-.14.12-.25.26-.24.14,0,.25.12.24.26,0,.14-.12.25-.26.24-.14,0-.25-.12-.24-.26Z"/>
        <path class="cls-6" d="M108.21,60.53c.12,1.69,1.36,2.98,2.77,2.88,1.41-.1,2.45-1.55,2.34-3.24-.12-1.69-1.36-2.98-2.77-2.88-1.41.1-2.45,1.55-2.34,3.24Z"/>
        <path class="cls-14" d="M108.76,60.49c.09,1.33,1.07,2.34,2.17,2.26,1.11-.08,1.93-1.22,1.83-2.55-.09-1.33-1.07-2.34-2.17-2.26-1.11.08-1.93,1.22-1.83,2.55Z"/>
        <path class="cls-5" d="M109.5,60.44c.06.83.67,1.47,1.36,1.42.69-.05,1.21-.76,1.15-1.6-.06-.83-.67-1.47-1.36-1.42-.69.05-1.21.76-1.15,1.6Z"/>
        <path class="cls-12" d="M112.06,59.4c-.02-.31-.29-.54-.6-.52-.31.02-.54.29-.52.6.02.31.29.54.6.52.31-.02.54-.29.52-.6Z"/>
        <path class="cls-14" d="M92.83,54.68c-1.35-1.07-3.27-.97-4.57.11-.22.19-.21.56-.02.76.21.22.54.2.76.02.43-.36,1.02-.57,1.57-.58.63,0,1.19.21,1.7.61.23.18.6.05.74-.18.17-.27.05-.56-.18-.74Z"/>
        <path class="cls-14" d="M112.96,55.39c-1.37-1.04-3.29-.91-4.57.19-.22.19-.2.57,0,.76.22.22.54.19.76,0,.43-.37,1.01-.59,1.56-.6.63-.02,1.19.18,1.71.58.23.18.6.04.74-.19.16-.28.04-.56-.19-.74Z"/>
        <path class="cls-12" d="M110.29,58.72c.12-.07.27-.04.35.08.07.12.04.27-.08.35-.12.07-.27.04-.35-.08-.07-.12-.04-.27.08-.35Z"/>
        <path class="cls-1" d="M116.05,66.68c0,1.39-1.75,2.53-3.91,2.53s-3.91-1.13-3.91-2.53,1.75-2.53,3.91-2.53,3.91,1.13,3.91,2.53Z"/>
        <path class="cls-1" d="M93.15,66.68c0,1.39-1.75,2.53-3.91,2.53s-3.91-1.13-3.91-2.53,1.75-2.53,3.91-2.53,3.91,1.13,3.91,2.53Z"/>
        <path class="cls-1" d="M101.79,64.53c-.11-.21-.3-.38-.33-.62-.02-.12-.17-.12-.19,0-.03.24.03.47.1.7.04.11.09.22.11.33.02.07.02.06.01.13,0,.04,0,.08-.02.12,0,0-.03.05-.03.06-.02.02-.02.03,0,0,0,0-.02.02-.02.03-.02.02-.03.03-.05.05,0,0-.06.04-.03.02.02,0,.01,0-.01,0-.02,0-.03,0-.05.01-.03,0-.06.02-.08.02-.02,0-.04,0-.07.01,0,0-.05,0-.06,0-.03,0-.06,0-.09,0,0,0-.06-.01-.07-.01-.04,0-.07-.02-.1-.03-.02,0-.04-.01-.06-.02-.01,0-.02,0-.03-.01,0,0,0,0-.01,0-.02,0-.04-.02-.06-.03-.04-.02-.08-.04-.12-.06-.02,0-.04-.02-.06-.02,0,0,0,0-.02,0-.09-.04-.16-.05-.26-.03-.16.05-.23.2-.2.36.03.19.24.29.4.36.15.06.29.1.45.12.27.03.55-.03.76-.21,0,0,0,0,0,0,.02-.02.04-.03.06-.05.02-.02.04-.03.06-.05.05-.05.09-.1.13-.15.07-.11.11-.24.12-.37.02-.23-.07-.45-.18-.64Z"/>
        <path class="cls-14" d="M73.11,58.02s5.56-4.05,6.21-12.18c0,0,1.37,2.17.87,3.86,0,0,8.6-6.52,8.32-13.35,3.12,4.92,8.93,10.26,18.8,9.96,0,0-2.4-2.86-2.4-4.25,0,0,5.27,5.93,11.18,7.04,0,0-.26-2-.22-3.55,2.34,5.18,5.58,9.61,10.32,12.79.57-5.06.17-10.58-.58-16.27,0,0-8.29-17.96-26.85-17.96s-27.52,15.33-25.65,33.93Z"/>
        <path class="cls-16" d="M105.11,74.77c0,1.19-.51,2.28-1.34,3.08-.89.87-2.16,1.41-3.56,1.41-1.51,0-2.85-.62-3.75-1.6-.72-.78-1.15-1.79-1.15-2.88,0-2.48,3.07-.29,4.9-.29,1.53,0,4.9-2.19,4.9.29Z"/>
        <path class="cls-13" d="M103.77,77.85c-.89.87-2.16,1.41-3.56,1.41-1.51,0-2.85-.62-3.75-1.6.74-.74,2.06-1.23,3.57-1.23,1.64,0,3.06.58,3.74,1.43Z"/>
      </g>
    </g>
  </g>
</svg>