<svg width="36" height="25" viewBox="0 0 36 25" fill="none" xmlns="http://www.w3.org/2000/svg">
<path d="M33.75 0H12.0536C11.3424 0 10.7679 0.574554 10.7679 1.28571V10.7679H1.28571C0.574554 10.7679 0 11.3424 0 12.0536V22.9821C0 23.6933 0.574554 24.2679 1.28571 24.2679H22.9821C23.6933 24.2679 24.2679 23.6933 24.2679 22.9821V13.5H33.75C34.4612 13.5 35.0357 12.9254 35.0357 12.2143V1.28571C35.0357 0.574554 34.4612 0 33.75 0ZM13.5 2.73214H21.5357V10.7679H13.5V2.73214ZM10.7679 21.5357H2.73214V13.5H10.7679V21.5357ZM21.5357 21.5357H13.5V13.5H21.5357V21.5357ZM32.3036 10.7679H24.2679V2.73214H32.3036V10.7679Z" fill="white" fill-opacity="0.85"/>
</svg>
