<svg width="24" height="24" viewBox="0 0 24 24" fill="none" xmlns="http://www.w3.org/2000/svg">
<path d="M7.83329 10.9577H6.16663C4.14996 10.9577 3.04163 9.84935 3.04163 7.83268V6.16602C3.04163 4.14935 4.14996 3.04102 6.16663 3.04102H7.83329C9.84996 3.04102 10.9583 4.14935 10.9583 6.16602V7.83268C10.9583 9.84935 9.84996 10.9577 7.83329 10.9577ZM6.16663 4.29102C4.84996 4.29102 4.29163 4.84935 4.29163 6.16602V7.83268C4.29163 9.14935 4.84996 9.70768 6.16663 9.70768H7.83329C9.14996 9.70768 9.70829 9.14935 9.70829 7.83268V6.16602C9.70829 4.84935 9.14996 4.29102 7.83329 4.29102H6.16663Z" fill="#787486"/>
<path d="M17.8333 10.9577H16.1666C14.15 10.9577 13.0416 9.84935 13.0416 7.83268V6.16602C13.0416 4.14935 14.15 3.04102 16.1666 3.04102H17.8333C19.85 3.04102 20.9583 4.14935 20.9583 6.16602V7.83268C20.9583 9.84935 19.85 10.9577 17.8333 10.9577ZM16.1666 4.29102C14.85 4.29102 14.2916 4.84935 14.2916 6.16602V7.83268C14.2916 9.14935 14.85 9.70768 16.1666 9.70768H17.8333C19.15 9.70768 19.7083 9.14935 19.7083 7.83268V6.16602C19.7083 4.84935 19.15 4.29102 17.8333 4.29102H16.1666Z" fill="#787486"/>
<path d="M17.8333 20.9577H16.1666C14.15 20.9577 13.0416 19.8493 13.0416 17.8327V16.166C13.0416 14.1493 14.15 13.041 16.1666 13.041H17.8333C19.85 13.041 20.9583 14.1493 20.9583 16.166V17.8327C20.9583 19.8493 19.85 20.9577 17.8333 20.9577ZM16.1666 14.291C14.85 14.291 14.2916 14.8493 14.2916 16.166V17.8327C14.2916 19.1493 14.85 19.7077 16.1666 19.7077H17.8333C19.15 19.7077 19.7083 19.1493 19.7083 17.8327V16.166C19.7083 14.8493 19.15 14.291 17.8333 14.291H16.1666Z" fill="#787486"/>
<path d="M7.83329 20.9577H6.16663C4.14996 20.9577 3.04163 19.8493 3.04163 17.8327V16.166C3.04163 14.1493 4.14996 13.041 6.16663 13.041H7.83329C9.84996 13.041 10.9583 14.1493 10.9583 16.166V17.8327C10.9583 19.8493 9.84996 20.9577 7.83329 20.9577ZM6.16663 14.291C4.84996 14.291 4.29163 14.8493 4.29163 16.166V17.8327C4.29163 19.1493 4.84996 19.7077 6.16663 19.7077H7.83329C9.14996 19.7077 9.70829 19.1493 9.70829 17.8327V16.166C9.70829 14.8493 9.14996 14.291 7.83329 14.291H6.16663Z" fill="#787486"/>
</svg>
